<svg width="23" height="23" viewBox="0 0 23 23" fill="none" xmlns="http://www.w3.org/2000/svg">
<path d="M11.36 7.35025C9.14174 7.35025 7.34349 9.14548 7.34349 11.36C7.34349 13.5745 9.14174 15.3697 11.36 15.3697C13.5782 15.3697 15.3765 13.5745 15.3765 11.36C15.3765 9.14548 13.5782 7.35025 11.36 7.35025Z" fill="#B6C942"/>
<path fill-rule="evenodd" clip-rule="evenodd" d="M4.89594 0.3566C9.15729 -0.118867 13.5627 -0.118867 17.8241 0.3566C20.1702 0.618374 22.0625 2.46382 22.3379 4.81421C22.8474 9.16325 22.8474 13.5568 22.3379 17.9058C22.0625 20.2562 20.1702 22.1016 17.8241 22.3634C13.5627 22.8389 9.15729 22.8389 4.89594 22.3634C2.54982 22.1016 0.657499 20.2562 0.382137 17.9058C-0.127379 13.5568 -0.127379 9.16325 0.382137 4.81421C0.657499 2.46382 2.54982 0.618374 4.89594 0.3566ZM17.5392 3.95739C16.8567 3.95739 16.3034 4.50977 16.3034 5.19116C16.3034 5.87255 16.8567 6.42493 17.5392 6.42493C18.2217 6.42493 18.7751 5.87255 18.7751 5.19116C18.7751 4.50977 18.2217 3.95739 17.5392 3.95739ZM5.48972 11.36C5.48972 8.12339 8.11793 5.4996 11.36 5.4996C14.602 5.4996 17.2302 8.12339 17.2302 11.36C17.2302 14.5966 14.602 17.2204 11.36 17.2204C8.11793 17.2204 5.48972 14.5966 5.48972 11.36Z" fill="#B6C942"/>
</svg>
