<svg width="20" height="23" viewBox="0 0 20 23" fill="none" xmlns="http://www.w3.org/2000/svg">
<path d="M19.9632 9.31777C18.0488 9.32244 16.1814 8.71298 14.6248 7.57548V15.5087C14.6242 16.9781 14.1843 18.4122 13.3638 19.6194C12.5432 20.8266 11.3812 21.7493 10.0332 22.2642C8.68506 22.779 7.21513 22.8614 5.81991 22.5004C4.42469 22.1394 3.17068 21.3522 2.22557 20.244C1.28045 19.1358 0.689281 17.7595 0.5311 16.2991C0.37292 14.8386 0.65527 13.3637 1.3404 12.0715C2.02552 10.7793 3.08077 9.73146 4.36503 9.06802C5.6493 8.40458 7.10136 8.1572 8.52707 8.35896V12.3491C7.87466 12.1396 7.1741 12.1459 6.52541 12.3671C5.87673 12.5884 5.3131 13.0131 4.91502 13.5809C4.51695 14.1486 4.30477 14.8302 4.3088 15.5283C4.31283 16.2265 4.53285 16.9055 4.93746 17.4684C5.34206 18.0313 5.91055 18.4493 6.56174 18.6626C7.21293 18.876 7.91352 18.8739 8.56346 18.6566C9.21341 18.4393 9.77946 18.0179 10.1808 17.4526C10.5821 16.8872 10.7982 16.2069 10.7982 15.5087V0H14.6248C14.6221 0.329875 14.6492 0.6593 14.7056 0.984112C14.8386 1.7092 15.1151 2.39898 15.5181 3.01125C15.9212 3.62353 16.4424 4.14543 17.0498 4.54502C17.914 5.12834 18.9272 5.43925 19.9632 5.43903V9.31777Z" fill="#B6C942"/>
</svg>
