<svg width="14" height="23" viewBox="0 0 14 23" fill="none" xmlns="http://www.w3.org/2000/svg">
<path d="M12.6445 18.4417C12.5949 18.2977 12.4276 18.2249 12.2778 18.2753C11.7459 18.454 11.188 18.5544 10.6233 18.5725C10.3062 18.6055 9.98541 18.5686 9.68563 18.4646C9.38584 18.3607 9.11507 18.1925 8.89417 17.973C8.67327 17.7535 8.50813 17.4886 8.41148 17.1987C8.31689 16.915 8.29036 16.6146 8.33374 16.32C8.33563 16.3071 8.33668 16.2942 8.33668 16.2812V9.2238H12.8273C12.9782 9.2238 13.1005 9.10713 13.1005 8.96321V6.07657C13.1005 5.93266 12.9782 5.81599 12.8273 5.81599H8.33668V0.260583C8.33668 0.116667 8.21436 0 8.06347 0H4.85909C4.81381 0.00288586 4.77137 0.022104 4.7404 0.053751C4.70944 0.085398 4.69226 0.127101 4.69236 0.17039C4.61727 1.51511 4.13367 2.80996 3.3005 3.8971C2.50449 4.93574 1.42226 5.74194 0.175696 6.22721C0.070515 6.26816 0 6.36477 0 6.47313V8.96321C0 9.10713 0.122318 9.2238 0.273205 9.2238H2.38191V16.6528C2.38191 19.186 4.34698 22.7982 9.52763 22.7187C11.1828 22.7187 13.0189 22.0689 13.5767 21.4892C13.634 21.4297 13.6447 21.3447 13.6183 21.2679L12.6445 18.4417Z" fill="#B6C942"/>
</svg>
