<svg width="33" height="23" viewBox="0 0 33 23" fill="none" xmlns="http://www.w3.org/2000/svg">
<path d="M32.325 3.55516C31.9533 2.15577 30.8583 1.05365 29.468 0.679636C26.9479 0 16.8426 0 16.8426 0C16.8426 0 6.73746 0 4.21732 0.679636C2.82698 1.05371 1.73197 2.15577 1.36032 3.55516C0.685059 6.09163 0.685059 11.3838 0.685059 11.3838C0.685059 11.3838 0.685059 16.6759 1.36032 19.2123C1.73197 20.6117 2.82698 21.6679 4.21732 22.042C6.73746 22.7216 16.8426 22.7216 16.8426 22.7216C16.8426 22.7216 26.9478 22.7216 29.468 22.042C30.8583 21.6679 31.9533 20.6117 32.325 19.2123C33.0002 16.6759 33.0002 11.3838 33.0002 11.3838C33.0002 11.3838 33.0002 6.09163 32.325 3.55516ZM13.5377 16.1886V6.5789L21.9836 11.3839L13.5377 16.1886Z" fill="#B6C942"/>
</svg>
