<svg width="36" height="34" viewBox="0 0 36 34" fill="none" xmlns="http://www.w3.org/2000/svg">
<path d="M18 10.9995C14.4851 10.9995 11.6358 13.686 11.6358 17C11.6358 20.314 14.4851 23.0005 18 23.0005C21.5148 23.0005 24.3641 20.314 24.3641 17C24.3641 13.686 21.5148 10.9995 18 10.9995Z" fill="#B6C942"/>
<path fill-rule="evenodd" clip-rule="evenodd" d="M7.75766 0.533645C14.5098 -0.177882 21.4902 -0.177882 28.2423 0.533645C31.9598 0.925383 34.9582 3.68705 35.3945 7.20436C36.2018 13.7126 36.2018 20.2874 35.3945 26.7956C34.9582 30.3129 31.9598 33.0746 28.2423 33.4664C21.4902 34.1779 14.5098 34.1779 7.75766 33.4664C4.0402 33.0746 1.04181 30.3129 0.605498 26.7956C-0.201833 20.2874 -0.201833 13.7126 0.605498 7.20436C1.04181 3.68705 4.0402 0.925383 7.75766 0.533645ZM27.791 5.92215C26.7095 5.92215 25.8328 6.74877 25.8328 7.76846C25.8328 8.78815 26.7095 9.61477 27.791 9.61477C28.8725 9.61477 29.7492 8.78815 29.7492 7.76846C29.7492 6.74877 28.8725 5.92215 27.791 5.92215ZM8.6985 17C8.6985 12.1565 12.8629 8.23004 18 8.23004C23.137 8.23004 27.3015 12.1565 27.3015 17C27.3015 21.8435 23.137 25.77 18 25.77C12.8629 25.77 8.6985 21.8435 8.6985 17Z" fill="#B6C942"/>
</svg>
