<svg width="231" height="91" viewBox="0 0 231 91" fill="none" xmlns="http://www.w3.org/2000/svg">
<g clip-path="url(#clip0_29_21)">
<path d="M129.168 89.83H130.577C130.577 89.83 124.37 71.3241 118.511 52.3212L129.168 89.83Z" fill="#333333"/>
<path d="M108.485 12.0288H107.076L109.971 22.2071C108.716 16.9688 108.085 13.2141 108.485 12.0288Z" fill="#333333"/>
<path d="M13.1287 64.0365C14.2529 63.0041 15.3848 62.0635 16.5552 61.2147C16.8247 52.7035 16.8247 44.2 16.509 35.6888C15.1538 34.84 13.3058 33.9835 11.4116 33.2723C13.1672 31.7047 14.9767 30.2747 16.9094 28.9747C19.1655 29.9612 21.283 31.1235 22.8615 32.24C24.2552 31.0776 25.6566 29.9994 27.1889 28.9747C30.6616 29.7318 33.911 30.7641 36.3442 31.8423C37.6532 36.2318 36.3904 41.0188 31.5625 45.1406C33.9033 45.9435 36.2056 46.9759 37.9227 48.0082C39.2779 54.6841 36.9294 60.5035 32.1092 64.6635C30.7078 65.8718 29.1755 66.95 27.5123 67.8447C22.1916 67.1718 16.9633 65.7876 13.1287 64.0365ZM30.7617 63.1876C32.3402 60.2741 32.6097 56.3359 32.2093 53.1165C32.0322 51.8623 31.8474 51.5947 30.7232 50.9676C29.0138 50.1188 26.8886 49.2241 24.7249 48.5512C26.3034 47.2512 27.9281 46.1347 29.6375 45.0565C30.8079 43.3971 31.1236 40.2235 30.677 37.3559C30.4537 36.1476 30.2227 35.9259 29.0523 35.4288C27.289 34.8018 25.1253 34.1288 22.8769 33.5476C22.6074 41.9212 22.6074 50.2488 22.9231 58.6223C22.0684 59.2494 21.1598 59.8306 20.2666 60.3659C23.2773 61.4823 26.9271 62.4688 30.7617 63.1876Z" fill="#333333"/>
<path d="M42.4811 65.3823C42.2116 58.7523 42.1654 51.7706 42.4349 45.1406C45.0067 43.2135 48.5256 41.0188 51.2283 39.5888C54.2005 40.2159 57.2266 41.3323 59.5212 42.7241C59.8831 48.6812 59.9293 56.16 59.6598 62.2929C57.4961 64.0823 53.4844 66.5447 50.4198 67.9823C47.848 67.3553 44.9605 66.4529 42.4811 65.3823ZM48.1637 59.517C48.2099 61.3065 48.4332 61.6659 49.8346 62.2012C51.005 62.6523 52.4526 63.0959 53.9849 63.5012C54.162 58.5765 54.0773 53.0706 53.8463 48.3676C53.8001 47.1135 53.5768 46.5782 52.2216 45.9053C50.9588 45.2782 49.6498 44.7888 48.1175 44.2917C47.9866 49.3082 48.0328 54.4547 48.1637 59.517Z" fill="#333333"/>
<path d="M64.8956 44.6512C66.5203 43.3512 68.7764 41.9671 71.1634 40.7512C69.1383 39.1835 66.3817 37.2106 62.7319 34.6182C63.8099 33.3182 65.8427 31.4371 67.4212 30.4124C73.5966 34.58 78.7864 38.61 81.9819 42.1429C82.4747 48.23 82.4362 57.6818 81.8895 62.7441C79.3639 64.5794 75.3984 66.9959 72.919 68.0282C70.0315 67.3094 67.1517 66.3688 64.988 65.4282C64.6646 58.4388 64.6261 49.7518 64.8956 44.6512ZM70.6629 60.2359C70.7553 61.6659 71.2943 62.1171 76.4302 63.6388C76.5688 58.4924 76.6073 50.3865 76.3378 46.8918C76.2454 45.5918 75.9759 45.0565 75.075 44.07C74.5822 43.5347 73.8122 42.8618 72.7265 41.9671C71.0171 43.0376 70.6552 43.6265 70.5628 44.5671C70.3934 47.2435 70.3472 56.2059 70.6629 60.2359Z" fill="#333333"/>
<path d="M84.4155 72.8612C85.6783 71.1559 87.0335 69.4582 88.4734 67.8906C92.077 68.8771 95.6883 69.68 99.2919 70.3071C99.469 68.2041 99.6076 65.6959 99.6538 63.0118C98.0291 64.22 96.3659 65.3365 94.9183 66.193C92.5775 65.6118 90.0057 64.7171 87.7496 63.6847C87.9729 57.8653 88.1115 49.9812 88.1115 46.8077C87.4339 45.8671 85.8554 44.3453 84.8621 43.7182C86.4406 42.1965 88.5581 40.7665 90.6294 39.7341C91.846 40.453 93.2859 41.6612 94.0559 42.7318C93.7864 47.343 93.6016 54.1947 93.6016 57.8653C93.6016 59.6547 93.8711 60.0141 95.2725 60.5494C96.5353 61.0388 98.0214 61.5359 99.6461 61.9412C99.7385 55.3571 99.469 47.84 98.8761 41.883C100.678 41.0341 103.073 40.1777 105.098 39.6424C105.729 49.0024 105.729 60.5953 104.874 69.3283C102.888 71.0259 99.3304 73.45 96.851 74.8341C92.9856 74.5588 87.4801 73.71 84.4155 72.8612Z" fill="#333333"/>
<path d="M176.307 37.0806C175.583 36.813 174.821 36.5453 174.004 36.3235C173.196 40.6212 171.794 45.5 170.124 50.073C172.965 50.6083 175.806 51.2353 178.332 51.9082V51.1053C178.332 47.0753 178.155 43.0912 177.793 39.0612C177.662 37.7994 177.485 37.5777 176.307 37.0806Z" fill="#333333"/>
<path d="M133.064 12.0288L149.996 66.2388C149.996 66.2388 145.145 68.6783 139.124 74.6659C133.094 80.6536 132.271 89.83 132.271 89.83H229.999V12.0288H133.064ZM182.398 68.1583C179.425 67.3094 176.538 66.2312 174.374 65.2447C175.498 64.2124 176.676 63.2259 177.893 62.3312C178.116 60.0906 178.255 56.6418 178.34 53.2847C177.662 54.2712 176.984 55.2118 176.268 55.9688C173.881 55.3877 171.171 54.8983 168.468 54.4012C167.252 57.3147 165.943 59.9071 164.68 62.0559C166.844 62.5453 169.146 62.9965 171.487 63.3559C170.224 65.0994 168.83 66.6671 167.336 68.1047C163.548 67.5236 159.76 66.713 156.695 65.8183C157.958 64.0747 159.351 62.5071 160.845 61.0694L162.647 61.5588C163.594 59.1424 164.541 56.5424 165.35 53.95C163.094 53.6365 160.884 53.3688 158.859 53.193C159.852 51.6253 160.93 50.1494 162.108 48.8953C163.556 49.033 165.08 49.2547 166.705 49.4765C167.875 45.2247 168.784 41.0112 169.231 37.4324C170.178 36.8053 171.079 36.2241 172.072 35.7271C168.961 34.8324 165.535 34.1135 162.016 33.5324C163.771 31.9647 165.581 30.5347 167.513 29.2347C173.512 30.1753 179.371 31.743 183.614 33.4865C184.015 37.9677 184.292 43.16 184.292 48.7577C184.292 52.9635 184.246 56.5041 184.022 59.8612C183.214 60.4883 182.313 61.0236 181.404 61.6047C183.345 62.3694 185.601 63.1724 187.895 63.8453C186.14 65.4741 184.338 66.8582 182.398 68.1583ZM197.051 59.6088C197.051 61.4441 197.543 61.8953 202.233 64.3118C200.523 65.8335 198.491 67.2253 196.465 68.2959C193.894 67.0877 191.822 65.7418 190.652 64.6253C191.06 61.0847 191.145 56.1141 191.145 47.5647C190.513 46.4941 188.889 44.7888 187.895 44.0241C189.474 42.5024 191.591 41.0724 193.663 40.04C194.833 41.1106 196.096 42.6783 196.866 43.9783C197.721 42.7241 199.168 41.0647 200.246 40.04C202.187 40.9806 204.258 42.5483 205.613 44.0241C204.843 45.8135 203.18 48.773 202.187 50.1112C200.878 48.6353 198.806 46.8841 196.912 45.5918C196.92 51.2353 197.004 55.5788 197.051 59.6088ZM215.454 59.6088C215.5 61.4441 215.946 61.8953 220.636 64.3118C218.919 65.8335 216.894 67.2253 214.868 68.2959C212.297 67.0877 210.225 65.7418 209.055 64.6253C209.463 61.0847 209.548 56.1141 209.548 49.3541V45.5H205.983C207.022 43.8406 208.193 42.3188 209.502 41.0265L209.363 35.9183C211.434 34.6183 213.552 33.5935 215.946 32.653C215.677 35.0694 215.546 37.4859 215.454 40.6671H220.682C220.32 42.143 219.958 44.1159 219.781 45.5H215.361V48.1459C215.361 52.5277 215.407 56.3818 215.454 59.6088Z" fill="#333333"/>
<path d="M129.167 89.83C129.167 89.83 131.177 79.8582 137.198 73.8706C143.228 67.8829 147.239 65.8947 147.239 65.8947L127.158 0.0611877C127.158 0.0611877 109.078 6.04883 107.068 12.0288C105.066 18.0165 129.167 89.83 129.167 89.83Z" fill="#333333"/>
<path d="M231 90.8318H0V11.0347H231V90.8318ZM2.0097 88.8359H228.99V13.0306H2.0097V88.8359Z" fill="#333333"/>
</g>
<defs>
<clipPath id="clip0_29_21">
<rect width="231" height="91" fill="white"/>
</clipPath>
</defs>
</svg>
