<svg width="31" height="34" viewBox="0 0 31 34" fill="none" xmlns="http://www.w3.org/2000/svg">
<path d="M31 13.5556C27.9527 13.5624 24.9802 12.6757 22.5023 11.0209V22.5623C22.5015 24.6998 21.8012 26.7862 20.4951 28.5425C19.189 30.2987 17.3393 31.6411 15.1934 32.3901C13.0476 33.1391 10.7077 33.259 8.48683 32.7338C6.26593 32.2086 4.26981 31.0633 2.76539 29.4511C1.26097 27.8389 0.319949 25.8367 0.068159 23.712C-0.183631 21.5874 0.265812 19.4416 1.35639 17.5618C2.44697 15.6819 4.1267 14.1574 6.17097 13.1922C8.21525 12.2271 10.5266 11.8672 12.7961 12.1607V17.9656C11.7576 17.6608 10.6424 17.67 9.60985 17.9918C8.57728 18.3136 7.68011 18.9316 7.04645 19.7575C6.41279 20.5835 6.07505 21.5751 6.08146 22.5907C6.08787 23.6064 6.43811 24.5942 7.08215 25.4131C7.72619 26.232 8.63111 26.8401 9.66767 27.1506C10.7042 27.461 11.8194 27.4579 12.854 27.1418C13.8886 26.8256 14.7896 26.2126 15.4285 25.3901C16.0673 24.5677 16.4113 23.578 16.4112 22.5623V0H22.5023C22.4981 0.479905 22.5412 0.959155 22.631 1.43169C22.8427 2.48656 23.2828 3.49006 23.9244 4.3808C24.566 5.27154 25.3956 6.0308 26.3625 6.61214C27.7381 7.46075 29.3509 7.91306 31 7.91274V13.5556Z" fill="#B6C942"/>
</svg>
