<svg width="21" height="34" viewBox="0 0 21 34" fill="none" xmlns="http://www.w3.org/2000/svg">
<path d="M19.4788 26.831C19.4024 26.6215 19.1447 26.5156 18.9138 26.5889C18.0945 26.8489 17.2351 26.995 16.3651 27.0214C15.8766 27.0693 15.3825 27.0156 14.9206 26.8644C14.4588 26.7131 14.0417 26.4684 13.7014 26.1491C13.3611 25.8298 13.1067 25.4444 12.9578 25.0226C12.8121 24.6097 12.7712 24.1728 12.8381 23.7441C12.841 23.7254 12.8426 23.7065 12.8426 23.6877V13.4198H19.7603C19.9928 13.4198 20.1812 13.2501 20.1812 13.0407V8.84087C20.1812 8.63148 19.9928 8.46174 19.7603 8.46174H12.8426V0.379125C12.8426 0.16974 12.6542 0 12.4217 0H7.4854C7.41564 0.00419866 7.35026 0.0321593 7.30256 0.0782029C7.25485 0.124246 7.22839 0.184921 7.22854 0.247903C7.11287 2.20435 6.36789 4.08823 5.08439 5.66993C3.85815 7.18106 2.19099 8.354 0.270659 9.06003C0.108628 9.1196 0 9.26017 0 9.41782V13.0407C0 13.2501 0.18843 13.4198 0.42087 13.4198H3.66931V24.2283C3.66931 27.9138 6.6965 33.1694 14.6772 33.0537C17.227 33.0537 20.0555 32.1083 20.9148 31.2649C21.003 31.1783 21.0196 31.0546 20.9789 30.9429L19.4788 26.831Z" fill="#B6C942"/>
</svg>
