<svg width="48" height="34" viewBox="0 0 48 34" fill="none" xmlns="http://www.w3.org/2000/svg">
<path fill-rule="evenodd" clip-rule="evenodd" d="M12.1093 0.455474C20.0243 -0.151825 27.9757 -0.151825 35.8907 0.455474L41.2076 0.86342C44.1691 1.09065 46.5918 3.26741 47.0813 6.14086C48.3062 13.3305 48.3062 20.6696 47.0813 27.8591C46.5918 30.7326 44.1691 32.9094 41.2076 33.1366L35.8907 33.5445C27.9757 34.1518 20.0243 34.1518 12.1093 33.5445L6.79244 33.1366C3.83094 32.9094 1.40821 30.7326 0.918662 27.8591C-0.306221 20.6695 -0.306221 13.3305 0.918662 6.14086C1.40821 3.26741 3.83094 1.09065 6.79244 0.86342L12.1093 0.455474ZM19.2542 22.7483V11.2517C19.2542 10.7091 19.8579 10.3739 20.3323 10.6531L30.1011 16.4014C30.5619 16.6725 30.5619 17.3275 30.1011 17.5986L20.3323 23.3469C19.8579 23.6261 19.2542 23.2909 19.2542 22.7483Z" fill="#B6C942"/>
</svg>
